<?xml version="1.0" standalone="no"?>
<!DOCTYPE svg PUBLIC "-//W3C//DTD SVG 20010904//EN"
 "http://www.w3.org/TR/2001/REC-SVG-20010904/DTD/svg10.dtd">
<svg version="1.0" xmlns="http://www.w3.org/2000/svg"
 width="256.000000pt" height="270.000000pt" viewBox="0 0 256.000000 270.000000"
 preserveAspectRatio="xMidYMid meet">
<metadata>
Created by potrace 1.10, written by Peter Selinger 2001-2011
</metadata>
<g transform="translate(0.000000,270.000000) scale(0.100000,-0.100000)"
fill="#000000" stroke="none">
<path d="M560 2692 c0 -15 44 -49 70 -55 28 -7 51 7 69 41 15 27 7 28 -26 2
-14 -11 -34 -20 -44 -20 -10 0 -24 9 -31 20 -13 20 -38 28 -38 12z"/>
<path d="M770 2678 c1 -35 -10 -90 -23 -118 -24 -52 -85 -103 -126 -104 -8 -1
-16 -7 -19 -14 -3 -9 4 -11 25 -6 75 18 133 70 158 143 20 59 20 121 0 121 -9
0 -15 -9 -15 -22z"/>
<path d="M880 2665 c0 -20 -9 -54 -21 -77 -37 -73 -152 -168 -203 -168 -9 0
-16 -4 -16 -10 0 -5 -10 -10 -22 -10 -14 0 -18 -4 -12 -9 12 -12 98 17 141 47
17 12 34 22 37 22 23 0 116 117 116 146 0 14 8 19 30 20 37 1 40 4 43 40 2 28
0 29 -45 32 l-48 3 0 -36z m76 14 c9 -16 -21 -43 -40 -36 -9 4 -16 16 -16 27
0 15 7 20 24 20 14 0 28 -5 32 -11z"/>
<path d="M1590 2687 c0 -7 9 -20 20 -30 12 -10 18 -22 14 -28 -4 -7 1 -7 15 0
15 9 21 9 21 1 0 -13 43 -3 48 11 2 5 11 9 19 9 9 0 13 3 10 6 -3 4 -2 15 4
25 14 26 -7 25 -23 -1 -15 -24 -88 -29 -88 -6 0 8 -7 17 -16 20 -22 8 -24 8
-24 -7z"/>
<path d="M1798 2648 c0 -29 0 -61 0 -71 1 -10 -2 -16 -7 -13 -5 3 -11 -7 -15
-22 -7 -31 -86 -97 -115 -96 -12 0 -17 -5 -14 -13 7 -17 12 -17 59 6 66 33
101 78 119 154 17 72 13 107 -11 107 -10 0 -14 -14 -16 -52z"/>
<path d="M1913 2679 c3 -11 -1 -43 -10 -72 -18 -60 -92 -144 -153 -173 -22
-10 -40 -22 -40 -26 0 -12 22 -21 29 -11 3 6 23 18 44 28 20 9 37 21 37 26 0
5 7 9 17 9 9 0 13 3 10 7 -4 3 2 12 12 19 27 19 73 102 65 116 -5 8 0 9 15 5
32 -8 83 40 75 71 -6 19 -13 22 -56 22 -46 0 -50 -2 -45 -21z m75 -17 c4 -28
-24 -40 -45 -19 -14 13 -14 19 -3 32 18 22 44 15 48 -13z"/>
<path d="M1160 2627 c-49 -13 -85 -41 -105 -83 -31 -65 5 -134 70 -134 7 0 32
16 55 35 23 19 36 35 30 35 -8 0 -10 9 -6 24 5 19 0 29 -16 40 -19 14 -20 16
-5 16 33 0 77 -30 84 -58 16 -64 1 -155 -35 -202 -45 -59 -59 -72 -67 -61 -3
6 -11 8 -17 5 -11 -7 9 -24 29 -24 22 0 74 52 93 96 15 32 20 65 20 128 0 80
-2 87 -27 111 -32 29 -95 34 -126 10 -18 -13 -17 -14 5 -17 16 -2 26 -13 34
-38 11 -32 9 -37 -15 -57 -27 -24 -48 -28 -66 -15 -22 15 -42 57 -35 72 4 8
13 27 21 43 7 15 18 27 25 27 7 0 14 6 17 13 2 8 29 12 88 12 74 0 88 -3 109
-22 13 -13 27 -23 31 -23 14 0 39 -69 39 -107 -1 -43 -20 -102 -41 -127 -54
-64 -136 -136 -154 -136 -4 0 -21 -6 -38 -14 -18 -8 -39 -17 -47 -19 -8 -3 -2
-6 13 -6 28 -1 140 50 152 68 3 6 12 8 20 4 9 -3 15 1 15 11 0 9 3 16 8 16 4
0 16 16 26 35 11 19 23 35 27 35 5 0 13 18 19 41 10 37 14 41 37 36 48 -9 88
64 43 78 -11 3 -20 13 -20 20 0 9 -6 12 -15 9 -8 -4 -15 -1 -15 5 0 6 -7 11
-15 11 -8 0 -15 8 -15 17 0 13 3 14 12 5 7 -7 24 -12 38 -12 31 0 50 17 50 45
-1 25 -33 65 -53 65 -15 0 -50 -36 -61 -63 -3 -8 -10 -6 -20 7 -35 44 -121 63
-196 43z m298 -19 c7 -7 12 -22 12 -35 0 -19 -5 -23 -30 -23 -38 0 -49 23 -25
50 21 23 27 24 43 8z m-17 -125 c19 -11 29 -26 29 -40 0 -19 -5 -23 -31 -23
-30 0 -31 1 -26 34 3 22 1 37 -6 40 -7 2 -8 5 -4 5 5 1 22 -7 38 -16z"/>
<path d="M144 2578 c-3 -4 -9 -6 -14 -3 -15 9 -80 -64 -80 -90 0 -13 -2 -30
-5 -38 -9 -23 28 -59 60 -59 27 0 28 -1 10 -14 -10 -8 -14 -14 -8 -14 21 0 74
33 88 53 15 24 12 80 -4 85 -6 2 -11 8 -11 14 0 7 5 6 14 -1 7 -6 20 -9 29 -6
25 10 57 -46 57 -101 0 -49 -18 -114 -32 -114 -4 0 -5 -6 -2 -14 8 -21 -42
-73 -99 -100 -34 -17 -45 -25 -31 -26 28 0 104 43 131 73 38 44 56 109 52 189
-6 106 -29 126 -136 120 -36 -2 -44 -17 -13 -25 11 -3 25 -17 31 -31 18 -38
-10 -76 -55 -76 -33 0 -66 24 -66 49 0 15 29 72 44 86 67 60 206 45 260 -27
15 -22 20 -44 20 -95 1 -78 -18 -125 -70 -179 -40 -40 -136 -104 -159 -104 -8
0 -15 -4 -15 -10 0 -15 11 -12 71 17 75 37 148 105 176 164 13 27 28 49 34 49
6 0 7 -4 4 -10 -3 -5 8 -2 24 8 38 22 50 65 25 93 -18 21 -44 25 -59 10 -6 -6
-11 -1 -11 15 -1 13 2 24 6 24 4 0 7 17 6 37 -1 42 22 56 49 29 21 -21 19 -33
-11 -53 -24 -15 -25 -17 -8 -24 27 -11 42 -10 25 0 -12 8 -12 12 2 26 20 19
20 25 7 59 -13 34 -46 34 -81 0 -27 -26 -69 -28 -53 -3 4 8 3 9 -4 5 -6 -4
-22 0 -36 9 -26 17 -152 20 -162 3z m323 -154 c20 -20 7 -47 -24 -52 -23 -3
-37 21 -28 49 8 23 31 24 52 3z"/>
<path d="M2190 2563 c-13 -13 -31 -23 -39 -23 -8 0 -11 -3 -8 -6 3 -4 0 -16
-8 -28 -33 -47 0 -121 55 -123 66 -2 103 41 85 98 -5 13 -2 25 6 29 18 11 39
1 32 -16 -3 -10 0 -12 10 -9 27 11 38 -103 15 -177 -14 -47 -72 -109 -124
-134 -20 -10 -32 -20 -25 -22 19 -6 94 33 127 67 38 39 62 118 59 194 -2 69
-18 102 -56 117 -29 12 -109 5 -109 -10 0 -4 11 -15 25 -24 47 -31 23 -96 -35
-96 -62 0 -79 63 -32 116 38 43 63 54 123 54 65 0 128 -29 152 -69 25 -43 23
-142 -5 -197 -38 -76 -147 -159 -258 -197 -8 -3 -4 -6 10 -6 14 0 43 8 65 19
22 11 46 19 53 20 6 0 12 5 12 10 0 6 7 10 15 10 9 0 18 7 21 15 4 8 12 15 19
15 7 0 15 7 19 15 3 8 12 15 21 15 8 0 15 7 15 15 0 9 11 28 25 43 14 15 25
37 25 49 0 17 6 23 23 23 39 0 59 22 55 60 -2 29 -8 37 -34 44 -30 9 -66 46
-44 46 5 0 10 5 10 10 0 6 -5 10 -10 10 -12 0 -71 40 -82 54 -3 5 -46 10 -95
11 -80 1 -91 -1 -113 -22z m355 -142 c9 -28 -5 -51 -30 -51 -27 0 -36 17 -24
48 10 27 45 29 54 3z"/>
<path d="M2490 2577 c-14 -7 -26 -21 -28 -32 -4 -19 -3 -19 20 3 28 26 41 27
58 7 16 -20 3 -53 -23 -58 -20 -3 -20 -4 -4 -11 25 -12 47 11 47 50 0 23 -6
37 -19 44 -24 12 -21 12 -51 -3z"/>
<path d="M720 2182 c0 -7 -13 -12 -30 -12 -31 0 -110 -45 -110 -62 0 -6 -9
-22 -21 -36 -18 -24 -19 -28 -5 -38 17 -12 21 -30 9 -37 -5 -2 -2 -2 4 -1 7 2
16 -3 20 -10 5 -7 21 -15 36 -18 43 -8 81 29 82 78 1 29 6 40 19 42 13 3 16 0
11 -9 -6 -9 -3 -11 8 -6 20 8 32 -55 21 -115 -4 -24 -7 -49 -5 -55 1 -7 -3
-13 -9 -13 -5 0 -10 -6 -10 -12 -1 -31 -91 -104 -116 -94 -10 4 -14 1 -11 -6
8 -26 90 5 131 50 25 29 56 121 56 170 0 78 -37 122 -102 122 -51 0 -64 -14
-34 -34 34 -22 34 -60 1 -82 -32 -21 -57 -15 -72 17 -32 67 35 129 138 129 57
0 61 -2 104 -45 42 -42 45 -48 45 -98 0 -30 -7 -69 -17 -88 -29 -60 -100 -125
-174 -160 -71 -34 -80 -43 -55 -52 10 -4 13 -1 10 7 -5 13 34 26 79 27 9 0 15
4 12 10 -4 5 0 9 7 9 22 0 116 94 141 140 13 25 32 47 43 50 10 3 28 10 38 16
26 15 14 61 -19 76 -26 12 -36 34 -11 25 15 -6 46 32 46 55 0 18 -36 48 -56
48 -9 0 -27 -12 -40 -27 -13 -16 -24 -22 -24 -15 0 6 -5 12 -10 12 -6 0 -28
11 -50 25 -22 14 -43 25 -47 25 -5 0 -1 -5 7 -10 13 -9 13 -10 0 -10 -9 0 -21
5 -28 12 -9 9 -12 9 -12 0z m233 -53 c8 -13 6 -21 -6 -33 -14 -14 -20 -15 -37
-4 -23 15 -25 29 -8 46 16 16 38 12 51 -9z m2 -134 c0 -23 -30 -32 -50 -15
-21 18 -7 42 24 38 18 -2 26 -9 26 -23z"/>
<path d="M1735 2182 c-112 -23 -170 -105 -125 -177 17 -28 28 -35 53 -35 40 0
49 7 75 49 19 31 19 36 6 57 -15 21 -14 22 8 17 38 -9 48 -32 48 -105 0 -78
-16 -117 -62 -156 -17 -14 -36 -31 -43 -38 -7 -7 -23 -10 -36 -7 -19 4 -21 3
-12 -7 19 -21 73 -1 119 45 24 24 45 54 48 67 2 13 9 45 14 71 20 99 -26 172
-101 163 -40 -5 -77 -26 -46 -26 17 0 49 -35 49 -53 -1 -27 -28 -47 -62 -47
-30 0 -37 5 -48 31 -9 21 -10 33 -3 37 6 4 13 16 17 27 12 38 53 57 121 58 54
1 69 -3 99 -26 93 -72 81 -202 -27 -296 -51 -44 -61 -51 -74 -51 -7 0 -13 -4
-13 -10 0 -5 -6 -10 -13 -10 -7 0 -22 -6 -33 -14 -18 -14 -18 -15 -1 -21 12
-5 24 0 36 14 10 11 26 21 35 21 33 0 149 115 165 163 9 27 16 34 31 30 14 -4
25 4 40 28 l20 34 -29 27 -30 27 25 16 c40 26 27 85 -20 85 -11 0 -33 -12 -48
-27 -27 -26 -28 -26 -28 -5 0 19 -4 21 -25 16 -20 -5 -24 -3 -19 10 4 12 2 15
-9 10 -8 -3 -30 -1 -49 3 -18 5 -42 7 -53 5z m254 -46 c10 -11 7 -17 -10 -29
-27 -20 -49 -11 -49 19 0 19 5 24 24 24 13 0 29 -6 35 -14z m-11 -108 c17 -17
15 -48 -4 -55 -8 -3 -22 1 -31 9 -12 13 -13 19 -1 37 15 24 20 25 36 9z"/>
<path d="M138 1867 c-21 -6 -38 -14 -38 -19 0 -5 11 -6 25 -2 94 24 135 -13
135 -123 0 -45 -6 -72 -22 -100 -23 -41 -66 -82 -85 -83 -7 0 -13 -4 -13 -9 0
-5 -8 -12 -17 -14 -16 -4 -16 -5 1 -6 45 -3 140 80 175 152 37 77 25 146 -32
183 -40 27 -82 33 -129 21z m162 -128 c0 -27 -4 -49 -9 -49 -15 0 -19 13 -11
35 4 11 4 32 -1 47 -6 21 -4 26 7 21 9 -3 14 -21 14 -54z"/>
<path d="M1165 1865 c-17 -14 -15 -15 25 -10 35 5 52 1 78 -14 31 -20 32 -22
32 -95 0 -41 -4 -78 -10 -81 -5 -3 -10 -13 -10 -22 0 -22 -48 -83 -66 -83 -7
0 -14 -3 -14 -8 0 -4 -18 -15 -40 -25 -22 -9 -40 -21 -40 -26 0 -5 27 4 60 20
65 33 160 113 160 135 0 7 -7 29 -16 48 -10 21 -14 44 -10 60 9 35 29 34 22
-1 -3 -16 -2 -41 3 -58 7 -25 10 -27 16 -12 15 36 -1 115 -28 142 -42 43 -124
58 -162 30z"/>
<path d="M2210 1864 l-35 -15 43 5 c97 10 137 -58 109 -184 -13 -59 -59 -116
-113 -140 -24 -11 -44 -25 -44 -31 0 -19 114 52 161 100 40 41 48 56 57 111 6
34 8 69 3 78 -5 9 -10 -6 -15 -47 -4 -33 -12 -61 -17 -61 -12 0 -3 94 12 122
10 18 -17 42 -74 66 -33 14 -41 14 -87 -4z"/>
<path d="M350 1851 c0 -15 6 -21 21 -21 25 0 22 33 -4 38 -12 2 -17 -3 -17
-17z"/>
<path d="M1390 1850 c0 -23 35 -28 43 -6 7 18 -1 26 -25 26 -11 0 -18 -7 -18
-20z"/>
<path d="M2430 1850 c0 -14 7 -20 21 -20 15 0 19 4 15 16 -3 9 -6 18 -6 20 0
2 -7 4 -15 4 -8 0 -15 -9 -15 -20z"/>
<path d="M1111 1816 c-16 -29 -12 -55 12 -70 25 -16 51 4 55 43 3 29 -4 36
-30 32 -5 0 -8 4 -8 9 0 18 -16 10 -29 -14z"/>
<path d="M66 1805 c-10 -38 9 -65 44 -65 27 0 30 3 30 33 0 25 -6 35 -27 45
-37 17 -40 16 -47 -13z"/>
<path d="M2151 1817 c-16 -16 -13 -67 4 -73 8 -4 27 -3 41 0 21 6 25 12 22 38
-2 25 -9 33 -30 39 -15 4 -31 2 -37 -4z"/>
<path d="M353 1744 c-7 -18 17 -38 31 -24 11 11 1 40 -14 40 -6 0 -13 -7 -17
-16z"/>
<path d="M1397 1754 c-14 -15 -6 -34 14 -34 14 0 19 5 17 17 -3 18 -20 27 -31
17z"/>
<path d="M2441 1751 c-14 -9 -9 -41 8 -41 13 0 23 32 14 41 -5 5 -14 4 -22 0z"/>
<path d="M1650 1448 c-49 -24 -89 -62 -88 -87 0 -9 -3 -25 -7 -37 -5 -16 2
-29 25 -53 28 -28 37 -31 69 -25 53 9 66 27 65 84 -1 58 18 72 50 40 18 -17
21 -33 21 -98 0 -43 -6 -91 -14 -110 -24 -58 -117 -136 -148 -125 -6 2 -14 -1
-19 -8 -10 -17 66 -2 87 17 8 8 20 14 26 14 15 0 67 67 81 105 10 28 17 108
14 166 -1 15 -14 38 -28 53 -21 21 -36 26 -73 26 -26 0 -56 -7 -67 -15 -18
-14 -18 -14 5 -15 46 0 68 -62 33 -93 -42 -38 -102 -8 -102 49 0 32 48 94 74
94 8 0 18 5 21 10 9 14 89 12 103 -2 7 -7 12 -9 12 -4 0 4 18 -3 39 -15 59
-33 75 -70 69 -160 -3 -40 -11 -75 -17 -77 -6 -2 -11 -9 -11 -15 -1 -29 -150
-157 -183 -157 -10 0 -17 -4 -17 -10 0 -5 -19 -11 -42 -12 l-43 -1 38 -4 c22
-3 51 2 69 11 17 9 35 16 40 16 16 0 117 75 118 87 0 7 6 16 14 20 8 4 24 29
35 56 17 38 25 47 46 47 37 0 67 34 55 62 -8 22 -15 11 -11 -18 2 -13 -26 -22
-51 -16 -22 4 -24 48 -3 56 8 3 15 12 15 20 0 10 -6 13 -15 10 -9 -4 -15 0
-15 9 0 8 -6 18 -12 20 -10 4 -10 8 1 15 7 5 11 14 7 20 -3 6 1 17 9 25 19 20
19 27 0 27 -17 0 -36 -38 -28 -55 3 -5 -8 4 -25 20 -16 17 -35 32 -43 34 -101
26 -121 26 -179 -1z"/>
<path d="M1956 1452 c16 -11 32 -45 27 -59 -3 -7 -16 -13 -29 -13 -34 0 -30
-17 5 -22 21 -3 28 -1 24 9 -3 7 0 13 6 13 18 0 13 45 -7 63 -10 10 -23 17
-28 17 -5 0 -4 -4 2 -8z"/>
<path d="M915 1418 c-11 -7 -31 -22 -45 -35 -28 -26 -45 -30 -37 -9 4 10 0 12
-14 9 -10 -3 -19 0 -19 6 0 6 5 11 11 11 5 0 7 5 4 10 -5 8 -11 8 -20 0 -9 -7
-27 -7 -62 1 -30 7 -62 9 -79 4 -16 -5 -31 -9 -34 -10 -29 -6 -96 -63 -86 -72
3 -3 1 -14 -5 -25 -14 -25 3 -73 33 -97 26 -22 82 -13 103 16 14 18 15 76 2
89 -13 13 -7 24 12 24 10 0 21 -7 25 -15 3 -8 12 -15 19 -15 28 0 38 -147 13
-194 -17 -34 -64 -86 -97 -107 -13 -9 -21 -20 -17 -24 9 -9 69 33 100 70 30
35 58 122 58 177 0 44 -31 112 -55 122 -36 13 -125 3 -125 -15 0 -5 8 -9 18
-9 10 0 23 -5 30 -12 18 -18 15 -69 -5 -84 -41 -31 -103 -4 -103 44 0 43 47
102 81 102 10 0 21 5 24 10 9 15 78 12 118 -5 44 -18 82 -53 91 -83 13 -39 8
-130 -9 -165 -26 -55 -107 -133 -170 -162 -26 -13 -33 -21 -25 -29 8 -8 13 -8
18 1 4 6 20 15 35 18 15 4 27 11 27 16 0 5 5 9 11 9 26 0 123 119 134 163 6
21 13 27 35 27 16 0 32 5 35 10 4 6 9 8 13 6 4 -2 8 11 9 30 1 32 0 34 -39 40
-34 6 -37 8 -22 17 47 24 73 98 39 111 -8 3 -12 12 -9 21 7 18 5 18 -21 3z
m33 -60 c3 -25 0 -28 -28 -28 -19 0 -29 -4 -25 -10 4 -6 10 -8 15 -5 5 3 11 1
14 -4 3 -5 -6 -11 -20 -14 -24 -4 -26 -2 -20 24 4 22 2 29 -10 29 -8 0 -12 5
-9 10 4 6 11 8 16 5 5 -4 9 1 9 10 0 12 7 15 28 13 21 -2 28 -9 30 -30z m-4
-114 c13 -33 6 -44 -24 -44 -25 0 -30 4 -30 23 0 13 3 27 7 30 12 13 41 7 47
-9z"/>
<path d="M2248 1119 c-7 -5 -25 -9 -40 -9 -16 0 -28 -4 -28 -10 0 -12 7 -12
48 -1 44 13 93 -15 100 -56 7 -41 6 -114 -2 -147 -13 -53 -97 -126 -144 -126
-7 0 -12 -7 -12 -15 0 -11 15 -7 62 18 67 34 148 111 148 139 0 9 4 20 10 23
10 6 5 70 -9 107 -18 47 -103 96 -133 77z m127 -131 c5 -30 3 -48 -3 -48 -10
0 -22 46 -22 88 0 41 17 13 25 -40z"/>
<path d="M130 1112 c0 -6 13 -10 29 -10 16 1 44 -8 63 -19 32 -19 33 -21 34
-92 1 -39 4 -75 8 -78 12 -12 6 -32 -8 -27 -8 3 -19 -7 -28 -25 -13 -28 -73
-80 -108 -94 -12 -4 -12 -6 2 -6 42 -2 151 89 183 153 8 16 15 53 15 82 0 49
-2 54 -41 85 -32 25 -54 34 -95 37 -34 3 -54 1 -54 -6z m170 -134 c0 -26 -4
-48 -10 -48 -5 0 -9 15 -8 33 0 17 -2 48 -6 67 -7 33 -6 34 9 16 9 -12 15 -40
15 -68z"/>
<path d="M350 1095 c0 -20 4 -26 18 -23 9 2 17 12 17 23 0 11 -8 21 -17 23
-14 3 -18 -3 -18 -23z"/>
<path d="M1183 1113 c-53 -7 -38 -20 28 -25 80 -6 89 -18 89 -120 0 -43 -3
-78 -7 -78 -5 0 -17 -19 -28 -41 -15 -33 -30 -46 -72 -65 -28 -13 -57 -24 -62
-24 -6 0 -11 -4 -11 -10 0 -35 133 37 188 103 45 52 58 95 47 160 -12 72 -81
112 -172 100z m154 -142 c3 -25 2 -41 -5 -41 -14 0 -22 25 -22 68 0 48 20 29
27 -27z"/>
<path d="M2433 1109 c-14 -14 -6 -39 12 -39 18 0 26 15 19 34 -7 19 -16 20
-31 5z"/>
<path d="M1390 1090 c0 -13 7 -20 20 -20 13 0 20 7 20 20 0 13 -7 20 -20 20
-13 0 -20 -7 -20 -20z"/>
<path d="M1113 1063 c-16 -34 -16 -56 -1 -71 15 -15 50 -16 64 -2 15 15 5 70
-14 70 -8 0 -20 7 -26 15 -9 13 -13 11 -23 -12z"/>
<path d="M70 1061 c-16 -30 -12 -47 13 -63 32 -20 54 -12 59 23 4 22 0 32 -11
36 -9 2 -24 9 -33 14 -13 6 -20 4 -28 -10z"/>
<path d="M2151 1066 c-21 -25 -8 -69 23 -77 23 -6 28 -4 37 17 13 37 11 51 -8
58 -10 3 -23 8 -29 11 -6 3 -16 -1 -23 -9z"/>
<path d="M350 979 c0 -14 5 -19 17 -17 26 5 29 38 4 38 -15 0 -21 -6 -21 -21z"/>
<path d="M1392 983 c2 -10 10 -18 18 -18 8 0 16 8 18 18 2 12 -3 17 -18 17
-15 0 -20 -5 -18 -17z"/>
<path d="M2430 980 c0 -15 5 -20 18 -18 9 2 17 10 17 18 0 8 -8 16 -17 18 -13
2 -18 -3 -18 -18z"/>
<path d="M674 780 c-6 -6 -26 -19 -45 -29 -81 -43 -95 -111 -35 -169 25 -24
40 -33 43 -24 3 6 8 10 13 7 4 -2 20 7 35 21 22 21 26 32 23 64 -2 22 -2 40
-1 40 1 0 13 -5 27 -11 26 -12 39 -57 31 -109 -2 -14 -4 -37 -4 -52 -1 -27
-54 -98 -73 -98 -12 0 -38 -26 -38 -38 0 -6 -8 -8 -19 -5 -10 3 -22 0 -25 -6
-11 -18 31 -13 74 9 71 36 120 122 120 213 0 83 -35 127 -102 127 -30 0 -69
-15 -58 -22 3 -2 14 -8 25 -14 26 -15 31 -51 9 -75 -42 -46 -107 0 -85 61 12
36 48 69 74 70 18 0 32 21 25 40 -2 8 -6 8 -14 0z"/>
<path d="M740 782 c-43 -11 -44 -15 -10 -27 19 -8 45 -14 57 -14 12 -1 37 -19
57 -43 31 -36 36 -48 36 -93 0 -29 -8 -67 -17 -86 -20 -41 -128 -149 -148
-149 -8 0 -15 -4 -15 -10 0 -5 -17 -12 -37 -16 -21 -4 -44 -13 -51 -21 -12
-12 -10 -13 14 -8 77 17 212 94 213 121 1 6 12 21 26 34 14 13 25 30 25 37 0
8 16 23 35 34 41 25 58 50 48 76 -9 23 -23 33 -50 33 -15 0 -23 6 -23 16 0 14
3 14 15 4 11 -9 18 -10 29 -1 7 6 21 9 30 5 13 -5 15 -1 9 27 -8 39 -21 55
-60 70 -15 5 -25 7 -21 4 4 -4 -2 -16 -12 -27 -19 -20 -19 -20 -77 9 -33 16
-65 28 -73 25z m218 -64 c-4 -29 -52 -38 -62 -13 -9 25 1 35 35 35 26 0 30 -3
27 -22z m-5 -109 c8 -13 6 -21 -6 -33 -22 -23 -36 -20 -43 8 -11 45 25 63 49
25z"/>
<path d="M1785 770 c4 -6 -12 -10 -42 -10 -61 0 -111 -26 -135 -71 -32 -59
-19 -101 39 -125 37 -16 44 -13 86 28 20 20 23 74 5 81 -7 3 -4 6 8 6 40 2 55
-30 53 -111 -2 -68 -5 -79 -36 -121 -19 -26 -41 -47 -49 -47 -8 0 -14 -4 -14
-10 0 -5 -6 -10 -14 -10 -8 0 -24 -9 -37 -20 -20 -16 -21 -19 -7 -20 9 0 19 4
22 9 3 4 18 11 33 14 30 6 79 47 104 87 8 14 21 54 27 90 14 75 1 130 -36 156
-26 18 -103 15 -110 -3 -2 -7 2 -13 9 -13 13 0 38 -29 39 -46 0 -19 -41 -54
-64 -54 -14 0 -30 10 -41 26 -15 24 -15 28 0 60 22 47 68 74 128 74 97 0 166
-63 161 -147 -3 -50 -22 -113 -35 -113 -5 0 -9 -5 -9 -12 0 -17 -87 -94 -129
-114 -20 -9 -44 -21 -53 -25 -10 -5 -25 -9 -35 -9 -11 0 -14 -3 -7 -10 12 -12
78 6 117 33 15 10 34 16 42 13 8 -3 17 -1 20 4 3 4 -1 11 -7 13 -10 4 -10 6
-1 6 19 1 63 49 91 100 31 56 49 75 57 61 8 -13 40 18 49 46 5 15 2 24 -9 28
-9 3 -13 10 -10 16 3 5 1 10 -4 10 -17 0 -13 14 9 38 11 12 20 25 20 30 0 11
-50 62 -61 62 -4 0 -20 -13 -35 -29 -23 -24 -29 -27 -41 -16 -7 8 -13 19 -13
25 0 7 -6 8 -18 1 -14 -7 -23 -5 -35 10 -17 19 -43 27 -32 9z m203 -56 c4 -29
-23 -51 -43 -34 -8 7 -15 21 -15 30 0 35 53 38 58 4z m0 -128 c-4 -26 -43 -34
-52 -10 -9 23 10 43 35 37 14 -4 19 -12 17 -27z"/>
<path d="M1140 544 c-52 -18 -97 -61 -92 -88 2 -10 -1 -23 -6 -28 -9 -9 12
-68 24 -68 2 0 3 22 3 48 -3 94 40 131 148 128 60 -2 77 -7 106 -29 72 -55 86
-161 33 -246 -27 -43 -124 -131 -143 -131 -7 0 -13 -3 -13 -8 0 -9 -90 -42
-121 -43 l-24 -1 25 -7 c14 -5 29 -4 35 1 5 4 18 8 28 8 16 0 36 8 93 39 7 3
28 19 49 35 30 25 38 27 46 15 8 -10 9 -8 4 8 -4 16 -1 23 15 28 11 4 20 12
18 18 -1 7 8 32 21 55 17 33 27 43 41 39 13 -3 28 6 45 27 l26 31 -31 28 c-18
16 -38 26 -46 23 -7 -3 -18 3 -24 14 -10 18 -8 19 20 14 24 -5 35 -2 50 16 21
24 27 60 10 60 -5 0 -10 -11 -10 -24 0 -30 -14 -40 -46 -32 -42 11 -27 58 21
68 19 3 19 4 2 11 -12 5 -26 -1 -43 -18 l-26 -26 -55 26 c-63 29 -117 31 -183
9z m320 -149 c19 -23 8 -50 -20 -50 -16 0 -26 6 -28 18 -4 18 14 47 28 47 4 0
13 -7 20 -15z"/>
<path d="M169 514 c-13 -7 -30 -13 -37 -14 -17 0 -42 -25 -42 -40 0 -6 14 -1
32 11 21 16 50 24 87 26 48 3 64 0 107 -26 46 -27 53 -35 66 -83 8 -29 13 -57
10 -63 -3 -5 -7 -22 -9 -38 -7 -64 -84 -154 -177 -208 -28 -16 -59 -29 -68
-29 -10 0 -18 -4 -18 -10 0 -12 15 -13 38 -1 9 4 37 17 62 28 85 38 180 141
180 195 0 10 7 18 15 18 18 0 19 5 3 29 -24 39 23 72 52 36 11 -13 9 -20 -9
-39 -22 -23 -19 -45 4 -23 31 31 25 97 -10 97 -7 0 -15 6 -18 13 -3 9 -7 9
-20 -2 -15 -12 -17 -11 -17 9 0 17 5 21 28 20 45 -3 52 -1 52 17 0 13 -3 14
-12 5 -7 -7 -23 -12 -36 -12 -22 0 -24 4 -20 35 3 24 0 35 -9 35 -7 0 -13 -7
-13 -15 0 -8 -9 -15 -20 -15 -11 0 -20 4 -20 9 0 8 -53 34 -75 37 -5 1 -12 2
-15 3 -23 9 -71 6 -91 -5z"/>
<path d="M2290 519 c-30 -4 -59 -5 -64 -2 -5 3 -31 -18 -57 -47 -60 -64 -63
-94 -18 -144 28 -30 35 -33 62 -25 46 13 58 30 64 92 3 32 7 57 8 57 2 0 17
-12 34 -27 27 -24 31 -34 31 -80 0 -74 -19 -160 -32 -142 -7 10 -8 8 -5 -9 3
-15 0 -22 -9 -22 -8 0 -14 -7 -14 -15 0 -8 -7 -15 -15 -15 -8 0 -15 -5 -15
-11 0 -5 -15 -16 -34 -24 -34 -14 -56 -35 -38 -35 5 0 24 7 43 16 104 50 141
114 143 241 1 77 -1 83 -27 107 -15 14 -32 26 -38 27 -31 3 -58 2 -84 -5 l-30
-8 27 -14 c35 -19 45 -56 24 -89 -21 -32 -61 -33 -87 -2 -22 26 -24 49 -6 80
49 88 184 104 264 31 l38 -35 0 -91 c0 -64 -4 -93 -12 -95 -7 -3 -13 -10 -13
-17 0 -16 -86 -98 -127 -122 -18 -10 -33 -21 -33 -25 0 -4 -16 -10 -35 -13
-19 -4 -35 -11 -35 -16 0 -13 3 -13 50 6 23 9 43 14 46 11 4 -3 16 4 29 16 12
12 41 39 63 59 23 20 42 41 42 47 0 6 5 11 10 11 6 0 10 7 10 15 0 8 5 15 11
15 7 0 9 9 6 21 -4 15 -2 19 9 15 12 -5 14 -1 8 16 -6 19 -5 21 8 11 25 -21
68 5 68 42 0 36 -31 80 -51 72 -10 -4 -9 -6 4 -6 20 -1 24 -21 3 -21 -15 0
-30 16 -40 44 -5 14 -3 16 6 9 11 -9 34 -10 71 -4 14 2 7 72 -9 88 -12 12 -20
13 -40 5 -13 -7 -24 -16 -24 -22 0 -7 7 -7 22 1 18 10 24 8 35 -7 20 -27 12
-49 -19 -52 -19 -2 -28 2 -33 17 -7 23 -20 27 -30 11 -4 -6 -11 -7 -17 -4 -6
4 -5 10 3 16 11 8 10 9 -3 4 -10 -3 -20 -1 -23 3 -3 5 -20 17 -37 28 -27 15
-44 17 -88 12z m259 -183 c4 -26 -26 -48 -49 -36 -12 6 -16 17 -12 35 4 21 9
26 31 23 16 -2 27 -10 30 -22z"/>
<path d="M1150 503 l-35 -5 34 -27 c30 -25 33 -31 27 -63 -7 -39 -38 -55 -78
-42 -15 4 -19 2 -16 -7 3 -9 20 -14 43 -14 30 0 42 6 58 28 18 24 20 32 10 67
-10 37 -9 40 11 40 47 0 56 -17 63 -115 3 -44 0 -71 -14 -100 -21 -47 -57 -95
-71 -95 -5 0 -16 -7 -23 -16 -7 -9 -22 -20 -34 -24 -20 -9 -20 -9 1 -9 21 -1
85 41 116 75 33 38 48 92 48 173 0 69 -3 83 -22 105 -25 26 -62 36 -118 29z"/>
<path d="M153 458 l-32 -11 35 -23 c42 -29 47 -30 39 -5 -9 29 17 32 50 5 26
-21 30 -30 33 -94 3 -49 1 -70 -8 -70 -6 0 -10 -8 -9 -17 4 -36 -48 -113 -65
-96 -3 4 -6 1 -6 -5 0 -24 23 -23 49 2 36 35 61 108 61 179 0 76 -21 120 -63
135 -38 14 -40 14 -84 0z"/>
<path d="M62 444 c-5 -11 -12 -35 -15 -55 -6 -42 17 -72 64 -84 32 -8 89 18
89 40 0 21 -13 19 -28 -5 -17 -28 -68 -27 -93 3 -22 27 -24 46 -5 73 9 12 11
26 6 33 -6 11 -10 10 -18 -5z"/>
<path d="M165 109 c-4 -6 -13 -8 -21 -5 -8 3 -14 2 -14 -3 0 -5 -10 -12 -22
-16 -14 -4 -18 -8 -10 -12 14 -6 102 28 102 40 0 11 -28 8 -35 -4z"/>
<path d="M1725 104 c-22 -8 -45 -12 -52 -10 -7 3 -13 -1 -13 -8 0 -8 -6 -16
-14 -19 -19 -8 -51 -56 -42 -64 3 -4 19 8 34 26 58 70 168 72 240 4 25 -23 44
-33 67 -33 32 0 64 24 51 37 -4 4 -11 1 -15 -6 -12 -19 -46 -9 -49 15 -2 11 5
27 14 35 14 12 19 10 34 -9 18 -22 40 -30 40 -14 0 16 -37 42 -59 42 -25 0
-55 -25 -46 -39 3 -5 1 -12 -5 -16 -5 -3 -10 -2 -10 4 0 10 -54 44 -75 47 -5
1 -13 3 -17 4 -5 1 -11 3 -15 4 -5 1 -12 4 -18 7 -5 4 -28 0 -50 -7z"/>
<path d="M685 99 c-4 -5 -15 -9 -26 -9 -11 0 -26 -6 -33 -12 -8 -7 -25 -23
-40 -36 -15 -12 -24 -27 -21 -32 10 -16 23 -12 30 9 3 11 26 29 51 41 64 32
137 22 192 -26 31 -27 49 -34 81 -34 50 0 71 28 51 66 -23 41 -68 40 -90 -2
-8 -13 -17 -24 -22 -24 -5 0 -7 4 -3 9 6 11 -50 41 -76 41 -10 0 -20 4 -23 8
-7 12 -64 13 -71 1z m270 -54 c0 -13 -8 -21 -24 -23 -28 -4 -46 11 -37 33 9
25 61 16 61 -10z"/>
<path d="M650 38 c-23 -10 -23 -11 -5 -15 11 -3 24 -9 30 -14 12 -12 28 -11
20 1 -8 14 18 13 50 -2 35 -16 45 -1 15 22 -28 22 -72 25 -110 8z"/>
<path d="M1680 35 c-10 -13 -9 -15 8 -15 12 0 24 -5 27 -10 9 -15 28 -12 22 3
-6 17 28 16 45 -1 14 -14 38 -16 38 -3 0 35 -115 56 -140 26z"/>
</g>
</svg>
